VIDEO INFO:

Format                           : Matroska
File size                        : 6.56 GiB
Duration                         : 1h 58mn
Overall bit rate                 : 7 959 Kbps
Encoded date                     : UTC 2011-07-21 20:13:07
Writing application              : mkvmerge v4.9.1 ('Ich will') gemaakt op Jul 11 2011 23:53:15
Writing library                  : libebml v1.2.1 + libmatroska v1.1.1

Video
ID                               : 1
Format                           : AVC
Format/Info                      : Advanced Video Codec
Format profile                   : High@L3.1
Format settings, CABAC           : Yes
Format settings, ReFrames        : 5 frames
Codec ID                         : V_MPEG4/ISO/AVC
Duration                         : 1h 58mn
Bit rate                         : 6 450 Kbps
Width                            : 1 280 pixels
Height                           : 528 pixels
Display aspect ratio             : 2.40:1
Frame rate                       : 23.976 fps
Color space                      : YUV
Chroma subsampling               : 4:2:0
Bit depth                        : 8 bits
Scan type                        : Progressive
Bits/(Pixel*Frame)               : 0.398
Stream size                      : 5.19 GiB (79%)
Writing library                  : x264 core 98 r1649 c54c47d
Encoding settings                : cabac=1 / ref=5 / deblock=1:0:0 / analyse=0x3:0x113 / me=umh / subme=7 / psy=1 / psy_rd=1.00:0.00 / mixed_ref=1 / me_range=16 / chroma_me=1 / trellis=1 / 8x8dct=1 / cqm=0 / deadzone=21,11 / fast_pskip=0 / chroma_qp_offset=-2 / threads=12 / sliced_threads=0 / nr=0 / decimate=1 / interlaced=0 / constrained_intra=0 / bframes=3 / b_pyramid=2 / b_adapt=1 / b_bias=0 / direct=1 / weightb=1 / weightp=2 / keyint=250 / keyint_min=25 / scenecut=40 / intra_refresh=0 / rc_lookahead=40 / rc=2pass / mbtree=1 / bitrate=6450 / ratetol=1.0 / qcomp=0.60 / qpmin=10 / qpmax=51 / qpstep=4 / cplxblur=20.0 / qblur=0.5 / ip_ratio=1.40 / aq=1:1.00
Language                         : English

Audio
ID                               : 2
Format                           : DTS
Format/Info                      : Digital Theater Systems
Codec ID                         : A_DTS
Duration                         : 1h 58mn
Bit rate mode                    : Constant
Bit rate                         : 1 510 Kbps
Channel(s)                       : 6 channels
Channel positions                : Front: L C R, Side: L R, LFE
Sampling rate                    : 48.0 KHz
Bit depth                        : 24 bits
Compression mode                 : Lossy
Stream size                      : 1.24 GiB (19%)

Text
ID                               : 3
Format                           : UTF-8
Codec ID                         : S_TEXT/UTF8
Codec ID/Info                    : UTF-8 Plain Text
Language                         : Dutch

-------------------------
sORRY MENSEN, IK HEB EEN NIEUWE TORRENT GEMAAKT, DE VORIGE WAS FOUT.
MKVMERGE GUI HAD EEN INSTELLINGSFOUTJE WELKE IS HERSTELD. HET MAAKTE VAN
DTS 5.1 EEN DTS MONO FILE. MIJN WELGEMEEND EXCUUS.

Verenigde Staten
Komedie / Horror
121 minuten

geregisseerd door George Miller (II)
met Jack Nicholson, Michelle Pfeiffer en Susan Sarandon

Alex, Jane en Suki zijn drie verveelde vrouwen uit New England die door hun echtgenoten in de steek zijn gelaten. Ze wensen dat er een mysterieuze man zal komen die al hun wensen in vervulling laat gaan. Dan verschijnt er een man in het dorp en hij voldoet precies aan de wens van de drie vrouwen. Daryl Van Horne is stinkend rijk en weet de vrouwen om zijn vinger te winden. Hij geeft hen zelfs mysterieuze krachten. Al snel heeft Dary de drie in zijn kwaadaardige macht waar ze niet meer van verlost kunnen worden.

- Ondertiteling (nederlands) aangevuld en ge re-synced in film met de mogelijkheid deze wel of niet weer te geven.

